# Blender v2.80 (sub 75) OBJ File: ''
# www.blender.org
mtllib Rock.mtl
o Cube_Cube.002
v -0.215754 -0.522701 0.747916
v -0.269091 -0.066680 0.897004
v -0.105188 -0.389546 -0.048258
v -0.182006 0.282335 -0.112445
v 0.365823 -0.609349 0.626527
v 0.443718 -0.153131 0.845397
v 0.544612 -0.567532 -0.262880
v 0.650193 0.022981 -0.267266
v 0.059981 0.232774 0.801459
v 0.110347 0.395492 0.297883
v 0.537552 0.277605 0.254670
v 0.458894 0.182186 0.782916
v -0.223994 -0.490862 0.372018
v -0.307933 -0.334249 0.871412
v -0.370393 0.140247 0.411632
v -0.198095 -0.069960 -0.137441
v 0.239521 -0.527390 -0.246347
v 0.261615 0.201889 -0.388804
v 0.650548 -0.325948 -0.384390
v 0.523668 -0.650249 0.155638
v 0.691800 -0.097494 0.269713
v 0.417835 -0.424916 0.778564
v 0.060153 -0.613720 0.774003
v 0.059792 -0.159137 1.070148
v 0.064781 0.329680 0.569405
v 0.341404 0.352407 0.257693
v 0.544618 0.233842 0.534274
v 0.267995 0.211115 0.845986
v -0.112638 0.132647 0.867594
v -0.041232 0.414408 0.085272
v 0.470802 0.064963 0.840294
v 0.605926 0.217016 0.005447
v -0.400473 -0.174481 0.399994
v 0.259001 -0.170772 -0.464526
v 0.682136 -0.412574 0.163685
v 0.022663 -0.416284 1.028205
v 0.155008 -0.671861 0.259634
v -0.188762 0.298663 0.487964
v 0.331994 0.302214 0.588790
v 0.161519 0.060726 1.003290
v 0.302475 0.355713 -0.100514
v 0.652756 0.117776 0.414811
vt 0.375000 0.000000
vt 0.494792 0.000000
vt 0.494792 0.125000
vt 0.375000 0.125000
vt 0.583333 0.000000
vt 0.583333 0.125000
vt 0.583333 0.250000
vt 0.494792 0.250000
vt 0.375000 0.250000
vt 0.493924 0.374132
vt 0.369792 0.369792
vt 0.583333 0.375000
vt 0.583333 0.500000
vt 0.491319 0.496528
vt 0.333333 0.458333
vt 0.493056 0.625000
vt 0.368056 0.625000
vt 0.583333 0.625000
vt 0.583333 0.750000
vt 0.491319 0.753472
vt 0.333333 0.791667
vt 0.493924 0.875868
vt 0.369792 0.880208
vt 0.583333 0.875000
vt 0.583333 1.000000
vt 0.494792 1.000000
vt 0.375000 1.000000
vt 0.125000 0.500000
vt 0.244792 0.494792
vt 0.248264 0.625000
vt 0.125000 0.625000
vt 0.244792 0.755208
vt 0.125000 0.750000
vt 0.619792 0.125000
vt 0.619792 0.250000
vt 0.619792 0.000000
vt 0.625000 0.000000
vt 0.625000 0.125000
vt 0.625000 0.250000
vt 0.666667 0.458333
vt 0.755208 0.494792
vt 0.755208 0.625000
vt 0.666667 0.625000
vt 0.875000 0.500000
vt 0.875000 0.625000
vt 0.875000 0.750000
vt 0.755208 0.755208
vt 0.666667 0.791667
vt 0.620660 0.875868
vt 0.619792 1.000000
vt 0.624132 0.753472
vt 0.630208 0.880208
vt 0.625000 1.000000
vt 0.620660 0.374132
vt 0.624132 0.496528
vt 0.630208 0.369792
vt 0.625000 0.625000
vn -0.6092 -0.7572 0.2356
vn -0.7916 -0.3142 0.5241
vn -0.9819 -0.1588 -0.1030
vn -0.6998 -0.6934 -0.1718
vn -0.7190 0.2650 0.6425
vn -0.9081 0.4167 0.0406
vn -0.6495 0.5561 -0.5185
vn -0.7812 -0.1147 -0.6137
vn -0.6658 -0.5659 -0.4863
vn -0.1866 -0.1000 -0.9773
vn -0.3070 -0.7291 -0.6117
vn 0.0000 0.5587 -0.8293
vn 0.7840 0.3544 -0.5096
vn 0.6668 -0.2465 -0.7033
vn 0.3822 -0.7788 -0.4974
vn 0.9463 -0.3017 0.1158
vn 0.4927 -0.8701 0.0093
vn 0.9882 0.0106 0.1528
vn 0.7310 -0.1292 0.6700
vn 0.6785 -0.4258 0.5986
vn 0.4507 -0.8192 0.3546
vn -0.0265 -0.4615 0.8867
vn -0.0684 -0.9099 0.4091
vn 0.0148 0.0356 0.9992
vn -0.2161 -0.9700 -0.1111
vn -0.5038 0.8275 0.2477
vn -0.2568 0.9595 -0.1161
vn -0.4178 0.6551 0.6295
vn -0.1259 0.8527 0.5070
vn -0.0782 0.9487 0.3063
vn 0.0306 0.9904 0.1346
vn 0.5664 0.8227 0.0490
vn 0.2730 0.9602 0.0592
vn 0.2203 0.9365 0.2729
vn 0.6503 0.7066 0.2787
vn 0.1856 0.7714 0.6086
vn 0.5731 0.6299 0.5241
vn 0.1220 0.4016 0.9076
vn 0.7122 0.1896 0.6759
vn 0.2272 0.9201 -0.3190
vn 0.7453 0.6461 -0.1646
vn 0.9362 0.2810 0.2112
usemtl None
s 1
f 1/1/1 14/2/2 33/3/3 13/4/4
f 14/2/2 2/5/5 15/6/6 33/3/3
f 33/3/3 15/6/6 4/7/7 16/8/8
f 13/4/4 33/3/3 16/8/8 3/9/9
f 3/9/9 16/8/8 34/10/10 17/11/11
f 16/8/8 4/7/7 18/12/12 34/10/10
f 34/10/10 18/12/12 8/13/13 19/14/14
f 17/11/11 34/10/10 19/14/14 7/15/15
f 7/15/15 19/14/14 35/16/16 20/17/17
f 19/14/14 8/13/13 21/18/18 35/16/16
f 35/16/16 21/18/18 6/19/19 22/20/20
f 20/17/17 35/16/16 22/20/20 5/21/21
f 5/21/21 22/20/20 36/22/22 23/23/23
f 22/20/20 6/19/19 24/24/24 36/22/22
f 36/22/22 24/24/24 2/25/5 14/26/2
f 23/23/23 36/22/22 14/26/2 1/27/1
f 3/28/9 17/29/11 37/30/25 13/31/4
f 17/29/11 7/15/15 20/17/17 37/30/25
f 37/30/25 20/17/17 5/21/21 23/32/23
f 13/31/4 37/30/25 23/32/23 1/33/1
f 4/7/7 15/6/6 38/34/26 30/35/27
f 15/6/6 2/5/5 29/36/28 38/34/26
f 38/34/26 29/36/28 9/37/29 25/38/30
f 30/35/27 38/34/26 25/38/30 10/39/31
f 11/40/32 26/41/33 39/42/34 27/43/35
f 26/41/33 10/44/31 25/45/30 39/42/34
f 39/42/34 25/45/30 9/46/29 28/47/36
f 27/43/35 39/42/34 28/47/36 12/48/37
f 2/25/5 24/24/24 40/49/38 29/50/28
f 24/24/24 6/19/19 31/51/39 40/49/38
f 40/49/38 31/51/39 12/48/37 28/52/36
f 29/50/28 40/49/38 28/52/36 9/53/29
f 8/13/13 18/12/12 41/54/40 32/55/41
f 18/12/12 4/7/7 30/35/27 41/54/40
f 41/54/40 30/35/27 10/39/31 26/56/33
f 32/55/41 41/54/40 26/56/33 11/40/32
f 6/19/19 21/18/18 42/57/42 31/51/39
f 21/18/18 8/13/13 32/55/41 42/57/42
f 42/57/42 32/55/41 11/40/32 27/43/35
f 31/51/39 42/57/42 27/43/35 12/48/37
